<?xml version="1.0" encoding="UTF-8" standalone="no"?>
<svg
   xmlns:dc="http://purl.org/dc/elements/1.1/"
   xmlns:cc="http://creativecommons.org/ns#"
   xmlns:rdf="http://www.w3.org/1999/02/22-rdf-syntax-ns#"
   xmlns:svg="http://www.w3.org/2000/svg"
   xmlns="http://www.w3.org/2000/svg"
   xmlns:sodipodi="http://sodipodi.sourceforge.net/DTD/sodipodi-0.dtd"
   xmlns:inkscape="http://www.inkscape.org/namespaces/inkscape"
   width="29"
   height="29"
   version="1.1"
   id="svg6"
   sodipodi:docname="027_jtlogo.svg"
   inkscape:version="0.92.5 (2060ec1f9f, 2020-04-08)">
  <metadata
     id="metadata12">
    <rdf:RDF>
      <cc:Work
         rdf:about="">
        <dc:format>image/svg+xml</dc:format>
        <dc:type
           rdf:resource="http://purl.org/dc/dcmitype/StillImage" />
      </cc:Work>
    </rdf:RDF>
  </metadata>
  <defs
     id="defs10" />
  <sodipodi:namedview
     pagecolor="#ffffff"
     bordercolor="#666666"
     borderopacity="1"
     objecttolerance="10"
     gridtolerance="10"
     guidetolerance="10"
     inkscape:pageopacity="0"
     inkscape:pageshadow="2"
     inkscape:window-width="1241"
     inkscape:window-height="748"
     id="namedview8"
     showgrid="false"
     inkscape:zoom="8.137931"
     inkscape:cx="14.5"
     inkscape:cy="14.5"
     inkscape:window-x="0"
     inkscape:window-y="27"
     inkscape:window-maximized="0"
     inkscape:current-layer="svg6" />
  <g
     id="layer1"
     transform="translate(-330.44144,-97.587911)"
     inkscape:export-xdpi="357.47672"
     inkscape:export-ydpi="357.47672">
    <rect
       style="fill:#002255;fill-opacity:1;stroke:#002255;stroke-width:2.99913621;stroke-linejoin:round;stroke-miterlimit:4;stroke-dasharray:none;stroke-opacity:1"
       width="26"
       height="26"
       x="331.94101"
       y="99.087479"
       clip-path="none"
       id="rect2" />
    <path
       style="fill:#ffffff;fill-opacity:1;stroke:none"
       d="m 339.77989,97.575521 -2.78092,13.806179 c -0.45222,2.23786 -1.22668,4.05366 -1.99976,4.59165 -0.69239,0.52567 -3.00674,1.15292 -4.53072,-0.28112 -0.0116,-0.0394 -0.0201,-0.0591 -0.0312,-0.0937 v 5.59119 c 2.27767,0.43218 3.16976,0.59166 5.62434,-0.0312 1.67074,-0.48348 3.09686,-2.12026 3.93703,-3.62334 0.63234,-1.15305 1.18783,-2.8669 1.65606,-5.15389 l 1.18736,-5.8723 6.12427,1.28066 -3.99952,18.77265 h 4.99941 l 3.71831,-17.80435 5.74932,1.18696 v -3.77952 l -15.84188,-3.24851 1.09362,-5.341309 h -4.90567 z"
       id="path4019" />
  </g>
</svg>
